mtllib model_17.mtl
o model_17
v -2.140049934387207 6.835987567901611 92.90716552734375 
v -2.0048768520355225 6.893190860748291 92.75340270996094 
v -2.0048768520355225 6.675819396972656 92.84242248535156 
v -0.912172794342041 6.675819396972656 92.84242248535156 
v -0.912172794342041 6.893190860748291 92.75340270996094 
v -0.7769997715950012 6.835987567901611 92.90716552734375 
v -0.912172794342041 11.709683418273926 94.74633026123047 
v -2.0048768520355225 11.709683418273926 94.74633026123047 
v -2.0048768520355225 11.034687995910645 96.8060302734375 
v -2.0048768520355225 11.80120849609375 94.96282196044922 
v -0.912172794342041 11.034687995910645 96.8060302734375 
v -0.912172794342041 11.80120849609375 94.96282196044922 
v -0.912172794342041 11.709683418273926 94.74633026123047 
v -0.7769997715950012 11.652480125427246 94.90010070800781 
v -2.0048768520355225 11.709683418273926 94.74633026123047 
v -2.140049934387207 11.652480125427246 94.90010070800781 
v -0.912172794342041 6.675819396972656 92.84242248535156 
v -0.7769997715950012 6.835987567901611 92.90716552734375 
v -0.912172794342041 5.920739650726318 94.68563079833984 
v -0.7769997715950012 6.069467544555664 94.74835205078125 
v -0.7769997715950012 10.885960578918457 96.74128723144531 
v -0.912172794342041 10.817317008972168 96.89505767822266 
v -0.912172794342041 6.000823974609375 94.9021224975586 
v -0.912172794342041 11.709683418273926 94.74633026123047 
v -0.912172794342041 6.893190860748291 92.75340270996094 
v -0.7769997715950012 11.652480125427246 94.90010070800781 
v -0.912172794342041 11.80120849609375 94.96282196044922 
v -0.912172794342041 11.034687995910645 96.8060302734375 
v -0.912172794342041 -10.851180076599121 96.8060302734375 
v -0.912172794342041 -10.633808135986328 96.89505767822266 
v -0.7769997715950012 -10.702451705932617 96.74128723144531 
v -0.7769997715950012 -5.885959625244141 94.74835205078125 
v -0.7769997715950012 -6.652479648590088 92.90716552734375 
v -0.912172794342041 -5.737231731414795 94.68563079833984 
v -0.912172794342041 -6.492311000823975 92.84242248535156 
v -0.912172794342041 -6.709682464599609 92.75340270996094 
v -0.7769997715950012 -11.468972206115723 94.90010070800781 
v -0.912172794342041 -11.526175498962402 94.74633026123047 
v -0.912172794342041 -11.61769962310791 94.96282196044922 
v -0.912172794342041 -5.817315578460693 94.9021224975586 
v -0.7769997715950012 6.069467544555664 94.74835205078125 
v -0.912172794342041 6.000823974609375 94.9021224975586 
v -0.912172794342041 5.920739650726318 94.68563079833984 
v -2.0048768520355225 5.920739650726318 94.68563079833984 
v -0.912172794342041 6.675819396972656 92.84242248535156 
v -2.0048768520355225 6.675819396972656 92.84242248535156 
v -2.0048768520355225 6.000823974609375 94.9021224975586 
v -2.140049934387207 6.069467544555664 94.74835205078125 
v -2.0048768520355225 10.817317008972168 96.89505767822266 
v -2.140049934387207 10.885960578918457 96.74128723144531 
v -2.0048768520355225 6.000823974609375 94.9021224975586 
v -2.140049934387207 6.069467544555664 94.74835205078125 
v -2.140049934387207 11.652480125427246 94.90010070800781 
v -2.140049934387207 6.835987567901611 92.90716552734375 
v -2.0048768520355225 11.709683418273926 94.74633026123047 
v -2.0048768520355225 6.893190860748291 92.75340270996094 
v -2.0048768520355225 11.034687995910645 96.8060302734375 
v -2.0048768520355225 11.80120849609375 94.96282196044922 
v -2.0048768520355225 6.675819396972656 92.84242248535156 
v -2.0048768520355225 5.920739650726318 94.68563079833984 
v -0.912172794342041 -10.633808135986328 96.89505767822266 
v -0.912172794342041 -10.851180076599121 96.8060302734375 
v -2.0048768520355225 -10.633808135986328 96.89505767822266 
v -2.0048768520355225 -10.851180076599121 96.8060302734375 
v -2.0048768520355225 -11.61769962310791 94.96282196044922 
v -0.912172794342041 -11.61769962310791 94.96282196044922 
v -0.912172794342041 -11.61769962310791 94.96282196044922 
v -0.912172794342041 -11.526175498962402 94.74633026123047 
v -2.0048768520355225 -11.61769962310791 94.96282196044922 
v -2.0048768520355225 -11.526175498962402 94.74633026123047 
v -2.0048768520355225 -6.709682464599609 92.75340270996094 
v -0.912172794342041 -6.709682464599609 92.75340270996094 
v -2.0048768520355225 -5.817315578460693 94.9021224975586 
v -2.0048768520355225 -10.633808135986328 96.89505767822266 
v -2.140049934387207 -10.702451705932617 96.74128723144531 
v -2.0048768520355225 -10.851180076599121 96.8060302734375 
v -2.140049934387207 -5.885959625244141 94.74835205078125 
v -2.0048768520355225 -5.737231731414795 94.68563079833984 
v -2.0048768520355225 -6.492311000823975 92.84242248535156 
v -2.140049934387207 -6.652479648590088 92.90716552734375 
v -2.0048768520355225 -6.709682464599609 92.75340270996094 
v -2.0048768520355225 -11.526175498962402 94.74633026123047 
v -2.140049934387207 -11.468972206115723 94.90010070800781 
v -2.0048768520355225 -11.61769962310791 94.96282196044922 
v -2.140049934387207 10.885960578918457 96.74128723144531 
v -2.0048768520355225 11.034687995910645 96.8060302734375 
v -2.0048768520355225 10.817317008972168 96.89505767822266 
v -0.912172794342041 11.034687995910645 96.8060302734375 
v -0.912172794342041 10.817317008972168 96.89505767822266 
v -0.7769997715950012 10.885960578918457 96.74128723144531 
v -0.912172794342041 6.000823974609375 94.9021224975586 
v -2.0048768520355225 6.000823974609375 94.9021224975586 
v -0.912172794342041 -5.737231731414795 94.68563079833984 
v -2.0048768520355225 -5.737231731414795 94.68563079833984 
v -0.912172794342041 -6.492311000823975 92.84242248535156 
v -2.0048768520355225 -6.492311000823975 92.84242248535156 
v -2.0048768520355225 -6.709682464599609 92.75340270996094 
v -0.912172794342041 -6.709682464599609 92.75340270996094 
v -0.912172794342041 -10.633808135986328 96.89505767822266 
v -0.912172794342041 -5.817315578460693 94.9021224975586 
v -2.0048768520355225 -10.633808135986328 96.89505767822266 
v -2.0048768520355225 -5.817315578460693 94.9021224975586 
v -2.0048768520355225 -5.737231731414795 94.68563079833984 
v -0.912172794342041 -5.737231731414795 94.68563079833984 
vn -0.9009283185005188 -0.16524890065193176 -0.401274174451828 
vn -0.3828888237476349 0.015138455666601658 -0.9236704111099243 
vn -0.38262739777565 -0.6677672863006592 -0.6385006904602051 
vn 0.38262739777565 -0.6677672863006592 -0.6385006904602051 
vn 0.3828888237476349 0.015138455666601658 -0.9236704111099243 
vn 0.9009283185005188 -0.16524890065193176 -0.401274174451828 
vn 0.37956520915031433 0.6398071050643921 -0.6682642698287964 
vn -0.38280749320983887 0.6378724575042725 -0.6682642698287964 
vn -0.3804469406604767 0.6690119504928589 0.6385006904602051 
vn -0.38260945677757263 0.9237009286880493 0.01966099627315998 
vn 0.3837212324142456 0.6671392917633057 0.6385006904602051 
vn 0.38260945677757263 0.9237009286880493 0.01966099627315998 
vn 0.37956520915031433 0.6398071050643921 -0.6682642698287964 
vn 0.9026865363121033 0.3963891863822937 -0.16742929816246033 
vn -0.38280749320983887 0.6378724575042725 -0.6682642698287964 
vn -0.9026865363121033 0.3963891863822937 -0.16742929816246033 
vn 0.38262739777565 -0.6677672863006592 -0.6385006904602051 
vn 0.9009283185005188 -0.16524890065193176 -0.401274174451828 
vn 0.38260945677757263 -0.9237009286880493 -0.01966099627315998 
vn 0.9028862118721008 -0.39593419432640076 0.16742929816246033 
vn 0.9009675979614258 0.1650346964597702 0.401274174451828 
vn 0.38252338767051697 -0.022558584809303284 0.9236704111099243 
vn 0.3806331157684326 -0.639172375202179 0.6682642698287964 
vn 0.37956520915031433 0.6398071050643921 -0.6682642698287964 
vn 0.3828888237476349 0.015138455666601658 -0.9236704111099243 
vn 0.9026865363121033 0.3963891863822937 -0.16742929816246033 
vn 0.38260945677757263 0.9237009286880493 0.01966099627315998 
vn 0.3837212324142456 0.6671392917633057 0.6385006904602051 
vn 0.3837212324142456 -0.6671392917633057 0.6385006904602051 
vn 0.38252338767051697 0.022558584809303284 0.9236704111099243 
vn 0.9009675979614258 -0.1650346964597702 0.401274174451828 
vn 0.9028862118721008 0.39593419432640076 0.16742929816246033 
vn 0.9009283185005188 0.16524890065193176 -0.401274174451828 
vn 0.38260945677757263 0.9237009286880493 -0.01966099627315998 
vn 0.38262739777565 0.6677672863006592 -0.6385006904602051 
vn 0.3828888237476349 -0.015138455666601658 -0.9236704111099243 
vn 0.9026865363121033 -0.3963891863822937 -0.16742929816246033 
vn 0.37956520915031433 -0.6398071050643921 -0.6682642698287964 
vn 0.38260945677757263 -0.9237009286880493 0.01966099627315998 
vn 0.3806331157684326 0.639172375202179 0.6682642698287964 
vn 0.9028862118721008 -0.39593419432640076 0.16742929816246033 
vn 0.3806331157684326 -0.639172375202179 0.6682642698287964 
vn 0.38260945677757263 -0.9237009286880493 -0.01966099627315998 
vn -0.38260945677757263 -0.9237009286880493 -0.01966099627315998 
vn 0.38262739777565 -0.6677672863006592 -0.6385006904602051 
vn -0.38262739777565 -0.6677672863006592 -0.6385006904602051 
vn -0.3806331157684326 -0.639172375202179 0.6682642698287964 
vn -0.9013645648956299 -0.3993862271308899 0.16742929816246033 
vn -0.38252338767051697 -0.022558584809303284 0.9236704111099243 
vn -0.9002804160118103 0.16874295473098755 0.401274174451828 
vn -0.3806331157684326 -0.639172375202179 0.6682642698287964 
vn -0.9013645648956299 -0.3993862271308899 0.16742929816246033 
vn -0.9026865363121033 0.3963891863822937 -0.16742929816246033 
vn -0.9009283185005188 -0.16524890065193176 -0.401274174451828 
vn -0.38280749320983887 0.6378724575042725 -0.6682642698287964 
vn -0.3828888237476349 0.015138455666601658 -0.9236704111099243 
vn -0.3804469406604767 0.6690119504928589 0.6385006904602051 
vn -0.38260945677757263 0.9237009286880493 0.01966099627315998 
vn -0.38262739777565 -0.6677672863006592 -0.6385006904602051 
vn -0.38260945677757263 -0.9237009286880493 -0.01966099627315998 
vn 0.38252338767051697 0.022558584809303284 0.9236704111099243 
vn 0.3837212324142456 -0.6671392917633057 0.6385006904602051 
vn -0.38252338767051697 0.022558584809303284 0.9236704111099243 
vn -0.3804469406604767 -0.6690119504928589 0.6385006904602051 
vn -0.38260945677757263 -0.9237009286880493 0.01966099627315998 
vn 0.38260945677757263 -0.9237009286880493 0.01966099627315998 
vn 0.38260945677757263 -0.9237009286880493 0.01966099627315998 
vn 0.37956520915031433 -0.6398071050643921 -0.6682642698287964 
vn -0.38260945677757263 -0.9237009286880493 0.01966099627315998 
vn -0.38280749320983887 -0.6378724575042725 -0.6682642698287964 
vn -0.3828888237476349 -0.015138455666601658 -0.9236704111099243 
vn 0.3828888237476349 -0.015138455666601658 -0.9236704111099243 
vn -0.3806331157684326 0.639172375202179 0.6682642698287964 
vn -0.38252338767051697 0.022558584809303284 0.9236704111099243 
vn -0.9002804160118103 -0.16874295473098755 0.401274174451828 
vn -0.3804469406604767 -0.6690119504928589 0.6385006904602051 
vn -0.9013645648956299 0.3993862271308899 0.16742929816246033 
vn -0.38260945677757263 0.9237009286880493 -0.01966099627315998 
vn -0.38262739777565 0.6677672863006592 -0.6385006904602051 
vn -0.9009283185005188 0.16524890065193176 -0.401274174451828 
vn -0.3828888237476349 -0.015138455666601658 -0.9236704111099243 
vn -0.38280749320983887 -0.6378724575042725 -0.6682642698287964 
vn -0.9026865363121033 -0.3963891863822937 -0.16742929816246033 
vn -0.38260945677757263 -0.9237009286880493 0.01966099627315998 
vn -0.9002804160118103 0.16874295473098755 0.401274174451828 
vn -0.3804469406604767 0.6690119504928589 0.6385006904602051 
vn -0.38252338767051697 -0.022558584809303284 0.9236704111099243 
vn 0.3837212324142456 0.6671392917633057 0.6385006904602051 
vn 0.38252338767051697 -0.022558584809303284 0.9236704111099243 
vn 0.9009675979614258 0.1650346964597702 0.401274174451828 
vn 0.3806331157684326 -0.639172375202179 0.6682642698287964 
vn -0.3806331157684326 -0.639172375202179 0.6682642698287964 
vn 0.38260945677757263 0.9237009286880493 -0.01966099627315998 
vn -0.38260945677757263 0.9237009286880493 -0.01966099627315998 
vn 0.38262739777565 0.6677672863006592 -0.6385006904602051 
vn -0.38262739777565 0.6677672863006592 -0.6385006904602051 
vn -0.3828888237476349 -0.015138455666601658 -0.9236704111099243 
vn 0.3828888237476349 -0.015138455666601658 -0.9236704111099243 
vn 0.38252338767051697 0.022558584809303284 0.9236704111099243 
vn 0.3806331157684326 0.639172375202179 0.6682642698287964 
vn -0.38252338767051697 0.022558584809303284 0.9236704111099243 
vn -0.3806331157684326 0.639172375202179 0.6682642698287964 
vn -0.38260945677757263 0.9237009286880493 -0.01966099627315998 
vn 0.38260945677757263 0.9237009286880493 -0.01966099627315998 
vt 0.26236066222190857 0.5263084173202515 
vt 0.24929757416248322 0.5371739864349365 
vt 0.24929757416248322 0.5154428482055664 
vt 0.14418238401412964 0.5154428482055664 
vt 0.14418238401412964 0.5371739864349365 
vt 0.13111929595470428 0.5263084173202515 
vt 0.14418238401412964 0.8799886703491211 
vt 0.24929757416248322 0.8799886703491211 
vt 0.5907692909240723 0.668171226978302 
vt 0.5907692909240723 0.5371739864349365 
vt 0.4856541156768799 0.668171226978302 
vt 0.4856541156768799 0.5371739864349365 
vt 0.4856541156768799 0.5154428482055664 
vt 0.4725910425186157 0.5263084173202515 
vt 0.5907692909240723 0.5154428482055664 
vt 0.6037103533744812 0.5263084173202515 
vt 0.4634346663951874 0.5154428482055664 
vt 0.4634346663951874 0.5000601410865784 
vt 0.6552302241325378 0.5154428482055664 
vt 0.6552302241325378 0.5000601410865784 
vt 0.6552302241325378 0.015382709912955761 
vt 0.6712233424186707 0.015382709912955761 
vt 0.6712233424186707 0.5000601410865784 
vt 0.4474415183067322 0.015382709912955761 
vt 0.4474415183067322 0.5000601410865784 
vt 0.4634346663951874 0.015382709912955761 
vt 0.4634346663951874 0 
vt 0.6552302241325378 0 
vt 0.2396528571844101 0 
vt 0.2236597239971161 0.015382709912955761 
vt 0.2396528571844101 0.015382709912955761 
vt 0.2396528571844101 0.5000601410865784 
vt 0.43144840002059937 0.5000601410865784 
vt 0.2396528571844101 0.5154428482055664 
vt 0.43144840002059937 0.5154428482055664 
vt 0.4474415183067322 0.5000601410865784 
vt 0.43144840002059937 0.015382709912955761 
vt 0.4474415183067322 0.015382709912955761 
vt 0.43144840002059937 0 
vt 0.2236597239971161 0.5000601410865784 
vt 0.7349516749382019 0.6573056578636169 
vt 0.7218886017799377 0.668171226978302 
vt 0.7218886017799377 0.6464400887489319 
vt 0.6167734265327454 0.6464400887489319 
vt 0.7218886017799377 0.5154428482055664 
vt 0.6167734265327454 0.5154428482055664 
vt 0.6167734265327454 0.668171226978302 
vt 0.6037103533744812 0.6573056578636169 
vt 0 0.015382709912955761 
vt 0.015993135049939156 0.015382709912955761 
vt 0 0.5000601410865784 
vt 0.015993135049939156 0.5000601410865784 
vt 0.20778867602348328 0.015382709912955761 
vt 0.20778867602348328 0.5000601410865784 
vt 0.2236597239971161 0.015382709912955761 
vt 0.2236597239971161 0.5000601410865784 
vt 0.015993135049939156 0 
vt 0.20778867602348328 0 
vt 0.20778867602348328 0.5154428482055664 
vt 0.015993135049939156 0.5154428482055664 
vt 0.36747583746910095 0.5154428482055664 
vt 0.36747583746910095 0.5308255553245544 
vt 0.4725910425186157 0.5154428482055664 
vt 0.4725910425186157 0.5308255553245544 
vt 0.4725910425186157 0.7160285115242004 
vt 0.36747583746910095 0.7160285115242004 
vt 0.9999982118606567 0.5000601410865784 
vt 0.9999982118606567 0.48455536365509033 
vt 0.8948830366134644 0.5000601410865784 
vt 0.8948830366134644 0.48455536365509033 
vt 0.8948830366134644 0 
vt 0.9999982118606567 0 
vt 0.6712233424186707 0.015382709912955761 
vt 0.6712233424186707 0.5000601410865784 
vt 0.6870943903923035 0.5000601410865784 
vt 0.6870943903923035 0.5154428482055664 
vt 0.6870943903923035 0.015382709912955761 
vt 0.6870943903923035 0 
vt 0.8788899183273315 0 
vt 0.8788899183273315 0.015382709912955761 
vt 0.8948830366134644 0.015382709912955761 
vt 0.8948830366134644 0.5000601410865784 
vt 0.8788899183273315 0.5000601410865784 
vt 0.8788899183273315 0.5154428482055664 
vt 0 0.869001030921936 
vt 0.013063094578683376 0.8799886703491211 
vt 0.013063094578683376 0.858135461807251 
vt 0.11817827820777893 0.8799886703491211 
vt 0.11817827820777893 0.858135461807251 
vt 0.13111929595470428 0.869001030921936 
vt 0.11817827820777893 0.5154428482055664 
vt 0.013063094578683376 0.5154428482055664 
vt 0.26236066222190857 0.7160285115242004 
vt 0.36747583746910095 0.7160285115242004 
vt 0.26236066222190857 0.5308255553245544 
vt 0.36747583746910095 0.5308255553245544 
vt 0.36747583746910095 0.5154428482055664 
vt 0.26236066222190857 0.5154428482055664 
vt 0.9999982118606567 0.5000601410865784 
vt 0.9999982118606567 0.9846155047416687 
vt 0.8948830366134644 0.5000601410865784 
vt 0.8948830366134644 0.9846155047416687 
vt 0.8948830366134644 0.9999982118606567 
vt 0.9999982118606567 0.9999982118606567 
s on 
f 1/1/1 2/2/2 3/3/3 
f 2/2/2 2/2/2 3/3/3 
f 3/3/3 2/2/2 4/4/4 
f 2/2/2 5/5/5 4/4/4 
f 4/4/4 5/5/5 6/6/6 
f 5/5/5 6/6/6 6/6/6 
f 6/6/6 6/6/6 5/5/5 
f 6/6/6 5/5/5 5/5/5 
f 5/5/5 5/5/5 7/7/7 
f 5/5/5 2/2/2 7/7/7 
f 7/7/7 2/2/2 8/8/8 
f 2/2/2 8/8/8 8/8/8 
f 8/8/8 8/8/8 9/9/9 
f 8/8/8 9/9/9 9/9/9 
f 9/9/9 9/9/9 10/10/10 
f 9/9/9 11/11/11 10/10/10 
f 10/10/10 11/11/11 10/10/10 
f 11/11/11 12/12/12 10/10/10 
f 10/10/10 12/12/12 13/13/13 
f 12/12/12 14/14/14 13/13/13 
f 13/13/13 14/14/14 14/14/14 
f 14/14/14 13/13/13 14/14/14 
f 14/14/14 13/13/13 13/13/13 
f 13/13/13 15/15/15 13/13/13 
f 13/13/13 15/15/15 10/10/10 
f 15/15/15 16/16/16 10/10/10 
f 10/10/10 16/16/16 16/16/16 
f 16/16/16 17/17/17 16/16/16 
f 16/16/16 17/17/17 17/17/17 
f 17/17/17 18/18/18 17/17/17 
f 17/17/17 18/18/18 19/19/19 
f 18/18/18 18/18/18 19/19/19 
f 19/19/19 18/18/18 20/20/20 
f 18/18/18 21/21/21 20/20/20 
f 20/20/20 21/21/21 20/20/20 
f 21/21/21 22/22/22 20/20/20 
f 20/20/20 22/22/22 23/23/23 
f 22/22/22 23/23/23 23/23/23 
f 23/23/23 23/23/23 24/24/24 
f 23/23/23 24/24/24 24/24/24 
f 24/24/24 24/24/24 25/25/25 
f 24/24/24 26/26/26 25/25/25 
f 25/25/25 26/26/26 18/18/18 
f 26/26/26 26/26/26 18/18/18 
f 18/18/18 26/26/26 21/21/21 
f 26/26/26 27/27/27 21/21/21 
f 21/21/21 27/27/27 28/28/28 
f 27/27/27 28/28/28 28/28/28 
f 28/28/28 28/28/28 29/29/29 
f 28/28/28 29/29/29 29/29/29 
f 29/29/29 29/29/29 30/30/30 
f 29/29/29 31/31/31 30/30/30 
f 30/30/30 31/31/31 32/32/32 
f 31/31/31 33/33/33 32/32/32 
f 32/32/32 33/33/33 34/34/34 
f 33/33/33 33/33/33 34/34/34 
f 34/34/34 33/33/33 35/35/35 
f 33/33/33 33/33/33 35/35/35 
f 35/35/35 33/33/33 36/36/36 
f 33/33/33 37/37/37 36/36/36 
f 36/36/36 37/37/37 38/38/38 
f 37/37/37 37/37/37 38/38/38 
f 38/38/38 37/37/37 39/39/39 
f 37/37/37 31/31/31 39/39/39 
f 39/39/39 31/31/31 29/29/29 
f 31/31/31 29/29/29 29/29/29 
f 29/29/29 29/29/29 31/31/31 
f 29/29/29 31/31/31 31/31/31 
f 31/31/31 31/31/31 33/33/33 
f 31/31/31 37/37/37 33/33/33 
f 33/33/33 37/37/37 37/37/37 
f 37/37/37 30/30/30 37/37/37 
f 37/37/37 30/30/30 30/30/30 
f 30/30/30 32/32/32 30/30/30 
f 30/30/30 32/32/32 40/40/40 
f 32/32/32 34/34/34 40/40/40 
f 40/40/40 34/34/34 34/34/34 
f 34/34/34 41/41/41 34/34/34 
f 34/34/34 41/41/41 41/41/41 
f 41/41/41 42/42/42 41/41/41 
f 41/41/41 42/42/42 43/43/43 
f 42/42/42 44/44/44 43/43/43 
f 43/43/43 44/44/44 45/45/45 
f 44/44/44 46/46/46 45/45/45 
f 45/45/45 46/46/46 46/46/46 
f 46/46/46 42/42/42 46/46/46 
f 46/46/46 42/42/42 42/42/42 
f 42/42/42 47/47/47 42/42/42 
f 42/42/42 47/47/47 44/44/44 
f 47/47/47 48/48/48 44/44/44 
f 44/44/44 48/48/48 48/48/48 
f 48/48/48 49/49/49 48/48/48 
f 48/48/48 49/49/49 49/49/49 
f 49/49/49 50/50/50 49/49/49 
f 49/49/49 50/50/50 51/51/51 
f 50/50/50 50/50/50 51/51/51 
f 51/51/51 50/50/50 52/52/52 
f 50/50/50 53/53/53 52/52/52 
f 52/52/52 53/53/53 54/54/54 
f 53/53/53 55/55/55 54/54/54 
f 54/54/54 55/55/55 56/56/56 
f 55/55/55 56/56/56 56/56/56 
f 56/56/56 56/56/56 50/50/50 
f 56/56/56 50/50/50 50/50/50 
f 50/50/50 50/50/50 53/53/53 
f 50/50/50 57/57/57 53/53/53 
f 53/53/53 57/57/57 58/58/58 
f 57/57/57 58/58/58 58/58/58 
f 58/58/58 58/58/58 54/54/54 
f 58/58/58 54/54/54 54/54/54 
f 54/54/54 54/54/54 52/52/52 
f 54/54/54 59/59/59 52/52/52 
f 52/52/52 59/59/59 60/60/60 
f 59/59/59 60/60/60 60/60/60 
f 60/60/60 60/60/60 61/61/61 
f 60/60/60 61/61/61 61/61/61 
f 61/61/61 61/61/61 62/62/62 
f 61/61/61 63/63/63 62/62/62 
f 62/62/62 63/63/63 62/62/62 
f 63/63/63 64/64/64 62/62/62 
f 62/62/62 64/64/64 62/62/62 
f 64/64/64 65/65/65 62/62/62 
f 62/62/62 65/65/65 66/66/66 
f 65/65/65 66/66/66 66/66/66 
f 66/66/66 66/66/66 67/67/67 
f 66/66/66 67/67/67 67/67/67 
f 67/67/67 67/67/67 68/68/68 
f 67/67/67 69/69/69 68/68/68 
f 68/68/68 69/69/69 68/68/68 
f 69/69/69 70/70/70 68/68/68 
f 68/68/68 70/70/70 68/68/68 
f 70/70/70 71/71/71 68/68/68 
f 68/68/68 71/71/71 72/72/72 
f 71/71/71 72/72/72 72/72/72 
f 72/72/72 72/72/72 73/73/73 
f 72/72/72 73/73/73 73/73/73 
f 73/73/73 73/73/73 74/74/74 
f 73/73/73 75/75/75 74/74/74 
f 74/74/74 75/75/75 76/76/76 
f 75/75/75 76/76/76 76/76/76 
f 76/76/76 76/76/76 75/75/75 
f 76/76/76 75/75/75 75/75/75 
f 75/75/75 75/75/75 77/77/77 
f 75/75/75 73/73/73 77/77/77 
f 77/77/77 73/73/73 77/77/77 
f 73/73/73 78/78/78 77/77/77 
f 77/77/77 78/78/78 77/77/77 
f 78/78/78 79/79/79 77/77/77 
f 77/77/77 79/79/79 80/80/80 
f 79/79/79 81/81/81 80/80/80 
f 80/80/80 81/81/81 80/80/80 
f 81/81/81 82/82/82 80/80/80 
f 80/80/80 82/82/82 83/83/83 
f 82/82/82 84/84/84 83/83/83 
f 83/83/83 84/84/84 83/83/83 
f 84/84/84 76/76/76 83/83/83 
f 83/83/83 76/76/76 83/83/83 
f 76/76/76 75/75/75 83/83/83 
f 83/83/83 75/75/75 83/83/83 
f 75/75/75 77/77/77 83/83/83 
f 83/83/83 77/77/77 80/80/80 
f 77/77/77 80/80/80 80/80/80 
f 80/80/80 80/80/80 85/85/85 
f 80/80/80 85/85/85 85/85/85 
f 85/85/85 85/85/85 86/86/86 
f 85/85/85 87/87/87 86/86/86 
f 86/86/86 87/87/87 88/88/88 
f 87/87/87 89/89/89 88/88/88 
f 88/88/88 89/89/89 90/90/90 
f 89/89/89 90/90/90 90/90/90 
f 90/90/90 90/90/90 89/89/89 
f 90/90/90 89/89/89 89/89/89 
f 89/89/89 89/89/89 91/91/91 
f 89/89/89 87/87/87 91/91/91 
f 91/91/91 87/87/87 92/92/92 
f 87/87/87 92/92/92 92/92/92 
f 92/92/92 92/92/92 93/93/93 
f 92/92/92 93/93/93 93/93/93 
f 93/93/93 93/93/93 94/94/94 
f 93/93/93 95/95/95 94/94/94 
f 94/94/94 95/95/95 96/96/96 
f 95/95/95 95/95/95 96/96/96 
f 96/96/96 95/95/95 97/97/97 
f 95/95/95 98/98/98 97/97/97 
f 97/97/97 98/98/98 98/98/98 
f 98/98/98 99/99/99 98/98/98 
f 98/98/98 99/99/99 99/99/99 
f 99/99/99 100/100/100 99/99/99 
f 99/99/99 100/100/100 101/101/101 
f 100/100/100 100/100/100 101/101/101 
f 101/101/101 100/100/100 102/102/102 
f 100/100/100 100/100/100 102/102/102 
f 102/102/102 100/100/100 103/103/103 
f 100/100/100 104/104/104 103/103/103 

